<?xml version="1.0" encoding="utf-8"?>
<!-- Uploaded to: SVG Repo, www.svgrepo.com, Generator: SVG Repo Mixer Tools -->
<svg fill="#000000" height="800px" width="800px" version="1.2" baseProfile="tiny" id="Layer_1" xmlns="http://www.w3.org/2000/svg" xmlns:xlink="http://www.w3.org/1999/xlink"
	  viewBox="0 0 216 256" xml:space="preserve">
<g>
	<circle cx="133.5" cy="125.6" r="18.8"/>
	<path d="M213.3,151.6l-19.9-52.4c0,0-2.1-20.8-4-28.8C181.1,34.6,141.1,2,97.7,2c-29.3,0-57,13.5-75.1,36.5
		C-10,80.1-2.8,140.2,38.7,172.9V254h102v-27.1h15c20.8,0,37.7-16.9,37.7-37.7v-26.8h12.7c4.3,0,7.8-3.5,7.8-7.8
		C213.9,153.5,213.7,152.5,213.3,151.6z M81.6,128v14.2H66.5v15.5H52.2v-15.5H36.6V128l15.7,0.1v-23.5c-6.8-1.1-13.1-4.3-18-9.2
		c-12.7-12.7-12.6-33.2,0.1-45.8c12.7-12.7,33.2-12.7,45.9,0c3.9,3.9,6.6,8.6,8.1,13.7c5,17.2-4.8,35.2-22,40.3V128H81.6z
		 M138.6,157.3c-17.5,2.8-33.9-8.9-36.7-26.4c-2.8-17.5,9-33.9,26.4-36.7l0.1-37.5l-14,14l-9.3-9.3L135,31.5l29.9,29.9l-9.3,9.3
		l-14.2-14.2v38.3C153.7,98,163,108,165,120.5C167.8,138,156.1,154.5,138.6,157.3z"/>
	<path d="M70.2,59.6c-7.2-7-18.7-7.1-25.8,0c-7.1,7.1-7.1,18.7,0,25.8c7.1,7.1,18.7,7.1,25.8,0C77.4,78.3,77.4,66.7,70.2,59.6z"/>
</g>
</svg>